<svg xmlns="http://www.w3.org/2000/svg" viewBox="-10 -10 110 210" preserveAspectRatio="none">
        <rect x="-10" y="-10" width="120" height="220" fill="black" />
  <path d="M 0.000000,5.000000 L 1.000000,5.012878 L 2.000000,5.051498 L 3.000000,5.115856 L 4.000000,5.205914 L 5.000000,5.321644 L 6.000000,5.463009 L 7.000000,5.629921 L 8.000000,5.822353 L 9.000000,6.040199 L 10.000000,6.283382 L 11.000000,6.551804 L 12.000000,6.845348 L 13.000000,7.163925 L 14.000000,7.507370 L 15.000000,7.875576 L 16.000000,8.268391 L 17.000000,8.685635 L 18.000000,9.127167 L 19.000000,9.592800 L 20.000000,10.082348 L 21.000000,10.595619 L 22.000000,11.132401 L 23.000000,11.692482 L 24.000000,12.275642 L 25.000000,12.881634 L 26.000000,13.510231 L 27.000000,14.161175 L 28.000000,14.834213 L 29.000000,15.529060 L 30.000000,16.245461 L 31.000000,16.983109 L 32.000000,17.741722 L 33.000000,18.520983 L 34.000000,19.320599 L 35.000000,20.140223 L 36.000000,20.979555 L 37.000000,21.838249 L 38.000000,22.715958 L 39.000000,23.612331 L 40.000000,24.527008 L 41.000000,25.459639 L 42.000000,26.409826 L 43.000000,27.377209 L 44.000000,28.361391 L 45.000000,29.361984 L 46.000000,30.378584 L 47.000000,31.410784 L 48.000000,32.458168 L 49.000000,33.520336 L 50.000000,34.596840 L 51.000000,35.687248 L 52.000000,36.791153 L 53.000000,37.908077 L 54.000000,39.037609 L 55.000000,40.179264 L 56.000000,41.332607 L 57.000000,42.497162 L 58.000000,43.672478 L 59.000000,44.858078 L 60.000000,46.053490 L 61.000000,47.258228 L 62.000000,48.471817 L 63.000000,49.693771 L 64.000000,50.923595 L 65.000000,52.160812 L 66.000000,53.404919 L 67.000000,54.655411 L 68.000000,55.911793 L 69.000000,57.173565 L 70.000000,58.440220 L 71.000000,59.711250 L 72.000000,60.986160 L 73.000000,62.264423 L 74.000000,63.545528 L 75.000000,64.828972 L 76.000000,66.114227 L 77.000000,67.400803 L 78.000000,68.688164 L 79.000000,69.975815 L 80.000000,71.263222 L 81.000000,72.549873 L 82.000000,73.835266 L 83.000000,75.118866 L 84.000000,76.400177 L 85.000000,77.678696 L 86.000000,78.953880 L 87.000000,80.225235 L 88.000000,81.492264 L 89.000000,82.754440 L 90.000000,84.011269 L 91.000000,85.262253 L 92.000000,86.506882 L 93.000000,87.744659 L 94.000000,88.975098 L 95.000000,90.197693 L 96.000000,91.411972 L 97.000000,92.617432 L 98.000000,93.813606 L 99.000000,95.000000 " fill="none" stroke="#B39DDB" stroke-width="2"/>
  <text x="5" y="15" font-family="monospace" font-size="12" fill="#B39DDB">Input Ch#0</text>
  <path d="M 0.000000,188.576538 L 1.000000,187.458359 L 2.000000,185.403336 L 3.000000,182.627472 L 4.000000,179.311508 L 5.000000,175.606049 L 6.000000,171.635941 L 7.000000,167.504105 L 8.000000,163.294785 L 9.000000,159.076370 L 10.000000,154.903870 L 11.000000,150.821014 L 12.000000,146.861969 L 13.000000,143.052994 L 14.000000,139.413635 L 15.000000,135.958008 L 16.000000,132.695572 L 17.000000,129.632126 L 18.000000,126.770355 L 19.000000,124.110550 L 20.000000,121.650978 L 21.000000,119.388397 L 22.000000,117.318367 L 23.000000,115.435532 L 24.000000,113.733887 L 25.000000,112.206955 L 26.000000,110.847961 L 27.000000,109.649994 L 28.000000,108.606064 L 29.000000,107.709236 L 30.000000,106.952667 L 31.000000,106.329689 L 32.000000,105.833809 L 33.000000,105.458771 L 34.000000,105.198578 L 35.000000,105.047470 L 36.000000,105.000000 L 37.000000,105.050934 L 38.000000,105.195366 L 39.000000,105.428619 L 40.000000,105.746292 L 41.000000,106.144241 L 42.000000,106.618538 L 43.000000,107.165512 L 44.000000,107.781708 L 45.000000,108.463882 L 46.000000,109.208961 L 47.000000,110.014099 L 48.000000,110.876579 L 49.000000,111.793869 L 50.000000,112.763611 L 51.000000,113.783508 L 52.000000,114.851486 L 53.000000,115.965530 L 54.000000,117.123764 L 55.000000,118.324402 L 56.000000,119.565742 L 57.000000,120.846184 L 58.000000,122.164200 L 59.000000,123.518333 L 60.000000,124.907196 L 61.000000,126.329453 L 62.000000,127.783836 L 63.000000,129.269104 L 64.000000,130.784088 L 65.000000,132.327621 L 66.000000,133.898621 L 67.000000,135.496002 L 68.000000,137.118713 L 69.000000,138.765747 L 70.000000,140.436096 L 71.000000,142.128799 L 72.000000,143.842896 L 73.000000,145.577454 L 74.000000,147.331543 L 75.000000,149.104248 L 76.000000,150.894684 L 77.000000,152.701935 L 78.000000,154.525162 L 79.000000,156.363480 L 80.000000,158.216003 L 81.000000,160.081894 L 82.000000,161.960312 L 83.000000,163.850388 L 84.000000,165.751282 L 85.000000,167.662170 L 86.000000,169.582199 L 87.000000,171.510559 L 88.000000,173.446396 L 89.000000,175.388916 L 90.000000,177.337250 L 91.000000,179.290604 L 92.000000,181.248154 L 93.000000,183.209076 L 94.000000,185.172577 L 95.000000,187.137817 L 96.000000,189.103973 L 97.000000,191.070267 L 98.000000,193.035889 L 99.000000,195.000000 " fill="none" stroke="#4285F4" stroke-width="2"/>
  <text x="5" y="115" font-family="monospace" font-size="12" fill="#4285F4">Output Ch#0</text>
</svg>