<svg xmlns="http://www.w3.org/2000/svg" viewBox="-10 -10 160 410" preserveAspectRatio="none">
        <rect x="-10" y="-10" width="170" height="420" fill="black" />
  <path d="M 0.000000,50.000000 L 1.000000,48.115181 L 2.000000,46.233673 L 3.000000,44.358768 L 4.000000,42.493763 L 5.000000,40.641922 L 6.000000,38.806496 L 7.000000,36.990719 L 8.000000,35.197754 L 9.000000,33.430763 L 10.000000,31.692835 L 11.000000,29.987024 L 12.000000,28.316324 L 13.000000,26.683670 L 14.000000,25.091913 L 15.000000,23.543865 L 16.000000,22.042219 L 17.000000,20.589621 L 18.000000,19.188623 L 19.000000,17.841675 L 20.000000,16.551144 L 21.000000,15.319302 L 22.000000,14.148293 L 23.000000,13.040180 L 24.000000,11.996914 L 25.000000,11.020309 L 26.000000,10.112091 L 27.000000,9.273853 L 28.000000,8.507053 L 29.000000,7.813057 L 30.000000,7.193069 L 31.000000,6.648174 L 32.000000,6.179340 L 33.000000,5.787373 L 34.000000,5.472980 L 35.000000,5.236698 L 36.000000,5.078941 L 37.000000,5.000000 L 38.000000,5.000004 L 39.000000,5.078941 L 40.000000,5.236706 L 41.000000,5.472980 L 42.000000,5.787380 L 43.000000,6.179340 L 44.000000,6.648174 L 45.000000,7.193077 L 46.000000,7.813057 L 47.000000,8.507057 L 48.000000,9.273853 L 49.000000,10.112091 L 50.000000,11.020309 L 51.000000,11.996914 L 52.000000,13.040180 L 53.000000,14.148296 L 54.000000,15.319305 L 55.000000,16.551147 L 56.000000,17.841682 L 57.000000,19.188623 L 58.000000,20.589626 L 59.000000,22.042231 L 60.000000,23.543865 L 61.000000,25.091923 L 62.000000,26.683670 L 63.000000,28.316324 L 64.000000,29.987036 L 65.000000,31.692841 L 66.000000,33.430767 L 67.000000,35.197754 L 68.000000,36.990723 L 69.000000,38.806511 L 70.000000,40.641922 L 71.000000,42.493759 L 72.000000,44.358768 L 73.000000,46.233681 L 74.000000,48.115189 L 75.000000,50.000004 L 76.000000,51.884815 L 77.000000,53.766331 L 78.000000,55.641228 L 79.000000,57.506241 L 80.000000,59.358093 L 81.000000,61.193508 L 82.000000,63.009296 L 83.000000,64.802254 L 84.000000,66.569237 L 85.000000,68.307167 L 86.000000,70.012970 L 87.000000,71.683670 L 88.000000,73.316322 L 89.000000,74.908081 L 90.000000,76.456146 L 91.000000,77.957787 L 92.000000,79.410378 L 93.000000,80.811386 L 94.000000,82.158325 L 95.000000,83.448853 L 96.000000,84.680710 L 97.000000,85.851707 L 98.000000,86.959824 L 99.000000,88.003098 L 100.000000,88.979691 L 101.000000,89.887909 L 102.000000,90.726151 L 103.000000,91.492943 L 104.000000,92.186943 L 105.000000,92.806931 L 106.000000,93.351822 L 107.000000,93.820663 L 108.000000,94.212631 L 109.000000,94.527023 L 110.000000,94.763306 L 111.000000,94.921051 L 112.000000,95.000000 L 113.000000,95.000000 L 114.000000,94.921051 L 115.000000,94.763306 L 116.000000,94.527016 L 117.000000,94.212616 L 118.000000,93.820656 L 119.000000,93.351822 L 120.000000,92.806931 L 121.000000,92.186935 L 122.000000,91.492935 L 123.000000,90.726151 L 124.000000,89.887909 L 125.000000,88.979691 L 126.000000,88.003098 L 127.000000,86.959824 L 128.000000,85.851700 L 129.000000,84.680695 L 130.000000,83.448853 L 131.000000,82.158325 L 132.000000,80.811363 L 133.000000,79.410370 L 134.000000,77.957779 L 135.000000,76.456139 L 136.000000,74.908073 L 137.000000,73.316322 L 138.000000,71.683655 L 139.000000,70.012955 L 140.000000,68.307159 L 141.000000,66.569237 L 142.000000,64.802254 L 143.000000,63.009274 L 144.000000,61.193497 L 145.000000,59.358082 L 146.000000,57.506229 L 147.000000,55.641228 L 148.000000,53.766312 L 149.000000,51.884804 " fill="none" stroke="#B39DDB" stroke-width="2"/>
  <text x="5" y="15" font-family="monospace" font-size="12" fill="#B39DDB">Input Ch#0</text>
  <path d="M 0.000000,105.000000 L 1.000000,105.039474 L 2.000000,105.157822 L 3.000000,105.354836 L 4.000000,105.630180 L 5.000000,105.983353 L 6.000000,106.413757 L 7.000000,106.920624 L 8.000000,107.503067 L 9.000000,108.160065 L 10.000000,108.890457 L 11.000000,109.692970 L 12.000000,110.566200 L 13.000000,111.508606 L 14.000000,112.518539 L 15.000000,113.594238 L 16.000000,114.733795 L 17.000000,115.935226 L 18.000000,117.196411 L 19.000000,118.515144 L 20.000000,119.889122 L 21.000000,121.315918 L 22.000000,122.793037 L 23.000000,124.317894 L 24.000000,125.887802 L 25.000000,127.500000 L 26.000000,129.151672 L 27.000000,130.839935 L 28.000000,132.561798 L 29.000000,134.314255 L 30.000000,136.094238 L 31.000000,137.898605 L 32.000000,139.724213 L 33.000000,141.567841 L 34.000000,143.426270 L 35.000000,145.296219 L 36.000000,147.174423 L 37.000000,149.057602 L 38.000000,150.942413 L 39.000000,152.825577 L 40.000000,154.703781 L 41.000000,156.573746 L 42.000000,158.432159 L 43.000000,160.275787 L 44.000000,162.101395 L 45.000000,163.905777 L 46.000000,165.685745 L 47.000000,167.438202 L 48.000000,169.160065 L 49.000000,170.848328 L 50.000000,172.500000 L 51.000000,174.112213 L 52.000000,175.682114 L 53.000000,177.206970 L 54.000000,178.684082 L 55.000000,180.110886 L 56.000000,181.484863 L 57.000000,182.803589 L 58.000000,184.064789 L 59.000000,185.266205 L 60.000000,186.405762 L 61.000000,187.481461 L 62.000000,188.491394 L 63.000000,189.433807 L 64.000000,190.307037 L 65.000000,191.109543 L 66.000000,191.839935 L 67.000000,192.496933 L 68.000000,193.079376 L 69.000000,193.586243 L 70.000000,194.016647 L 71.000000,194.369812 L 72.000000,194.645157 L 73.000000,194.842178 L 74.000000,194.960526 L 75.000000,195.000000 L 76.000000,194.960526 L 77.000000,194.842178 L 78.000000,194.645157 L 79.000000,194.369812 L 80.000000,194.016632 L 81.000000,193.586243 L 82.000000,193.079376 L 83.000000,192.496933 L 84.000000,191.839935 L 85.000000,191.109543 L 86.000000,190.307037 L 87.000000,189.433807 L 88.000000,188.491394 L 89.000000,187.481445 L 90.000000,186.405762 L 91.000000,185.266205 L 92.000000,184.064774 L 93.000000,182.803589 L 94.000000,181.484848 L 95.000000,180.110870 L 96.000000,178.684067 L 97.000000,177.206955 L 98.000000,175.682114 L 99.000000,174.112198 L 100.000000,172.500000 L 101.000000,170.848328 L 102.000000,169.160049 L 103.000000,167.438202 L 104.000000,165.685745 L 105.000000,163.905762 L 106.000000,162.101379 L 107.000000,160.275787 L 108.000000,158.432144 L 109.000000,156.573730 L 110.000000,154.703781 L 111.000000,152.825577 L 112.000000,150.942398 L 113.000000,149.057587 L 114.000000,147.174423 L 115.000000,145.296219 L 116.000000,143.426254 L 117.000000,141.567841 L 118.000000,139.724197 L 119.000000,137.898590 L 120.000000,136.094223 L 121.000000,134.314255 L 122.000000,132.561783 L 123.000000,130.839920 L 124.000000,129.151672 L 125.000000,127.500008 L 126.000000,125.887802 L 127.000000,124.317886 L 128.000000,122.793022 L 129.000000,121.315910 L 130.000000,119.889114 L 131.000000,118.515144 L 132.000000,117.196396 L 133.000000,115.935211 L 134.000000,114.733795 L 135.000000,113.594238 L 136.000000,112.518539 L 137.000000,111.508606 L 138.000000,110.566193 L 139.000000,109.692963 L 140.000000,108.890450 L 141.000000,108.160065 L 142.000000,107.503067 L 143.000000,106.920624 L 144.000000,106.413757 L 145.000000,105.983360 L 146.000000,105.630180 L 147.000000,105.354836 L 148.000000,105.157822 L 149.000000,105.039474 " fill="none" stroke="#FFAB91" stroke-width="2"/>
  <text x="5" y="115" font-family="monospace" font-size="12" fill="#FFAB91">Input Ch#1</text>
  <path d="M 0.000000,254.351410 L 1.000000,254.323883 L 2.000000,254.241455 L 3.000000,254.104660 L 4.000000,253.914276 L 5.000000,253.671432 L 6.000000,253.377579 L 7.000000,253.034378 L 8.000000,252.643860 L 9.000000,252.208282 L 10.000000,251.730209 L 11.000000,251.212433 L 12.000000,250.657990 L 13.000000,250.070145 L 14.000000,249.452377 L 15.000000,248.808380 L 16.000000,248.142014 L 17.000000,247.457291 L 18.000000,246.758408 L 19.000000,246.049637 L 20.000000,245.335388 L 21.000000,244.620163 L 22.000000,243.908493 L 23.000000,243.205002 L 24.000000,242.514313 L 25.000000,241.841034 L 26.000000,241.189774 L 27.000000,240.565109 L 28.000000,239.971542 L 29.000000,239.413483 L 30.000000,238.895264 L 31.000000,238.421051 L 32.000000,237.994888 L 33.000000,237.620651 L 34.000000,237.302063 L 35.000000,237.042587 L 36.000000,236.845490 L 37.000000,236.713821 L 38.000000,236.650345 L 39.000000,236.657593 L 40.000000,236.737793 L 41.000000,236.892868 L 42.000000,237.124451 L 43.000000,237.433884 L 44.000000,237.822128 L 45.000000,238.289856 L 46.000000,238.837387 L 47.000000,239.464706 L 48.000000,240.171432 L 49.000000,240.956863 L 50.000000,241.819916 L 51.000000,242.759171 L 52.000000,243.772873 L 53.000000,244.858902 L 54.000000,246.014847 L 55.000000,247.237885 L 56.000000,248.524948 L 57.000000,249.872620 L 58.000000,251.277176 L 59.000000,252.734589 L 60.000000,254.240616 L 61.000000,255.790665 L 62.000000,257.379944 L 63.000000,259.003448 L 64.000000,260.655914 L 65.000000,262.331909 L 66.000000,264.025787 L 67.000000,265.731842 L 68.000000,267.444092 L 69.000000,269.156586 L 70.000000,270.863159 L 71.000000,272.557709 L 72.000000,274.233978 L 73.000000,275.885712 L 74.000000,277.506714 L 75.000000,279.090759 L 76.000000,280.631744 L 77.000000,282.123535 L 78.000000,283.560181 L 79.000000,284.935852 L 80.000000,286.244812 L 81.000000,287.481567 L 82.000000,288.640747 L 83.000000,289.717255 L 84.000000,290.706177 L 85.000000,291.602875 L 86.000000,292.403015 L 87.000000,293.102539 L 88.000000,293.697662 L 89.000000,294.184998 L 90.000000,294.561432 L 91.000000,294.824249 L 92.000000,294.971100 L 93.000000,295.000000 L 94.000000,294.909363 L 95.000000,294.698029 L 96.000000,294.365204 L 97.000000,293.910522 L 98.000000,293.334076 L 99.000000,292.636292 L 100.000000,291.818085 L 101.000000,290.880768 L 102.000000,289.826050 L 103.000000,288.656158 L 104.000000,287.373566 L 105.000000,285.981293 L 106.000000,284.482666 L 107.000000,282.881470 L 108.000000,281.181793 L 109.000000,279.388092 L 110.000000,277.505249 L 111.000000,275.538422 L 112.000000,273.493042 L 113.000000,271.374939 L 114.000000,269.190125 L 115.000000,266.944946 L 116.000000,264.645996 L 117.000000,262.299957 L 118.000000,259.913879 L 119.000000,257.494873 L 120.000000,255.050247 L 121.000000,252.587372 L 122.000000,250.113785 L 123.000000,247.637039 L 124.000000,245.164795 L 125.000000,242.704651 L 126.000000,240.264267 L 127.000000,237.851227 L 128.000000,235.473099 L 129.000000,233.137299 L 130.000000,230.851196 L 131.000000,228.621979 L 132.000000,226.456680 L 133.000000,224.362152 L 134.000000,222.345047 L 135.000000,220.411758 L 136.000000,218.568451 L 137.000000,216.820953 L 138.000000,215.174866 L 139.000000,213.635406 L 140.000000,212.207520 L 141.000000,210.895752 L 142.000000,209.704285 L 143.000000,208.636902 L 144.000000,207.697037 L 145.000000,206.887665 L 146.000000,206.211349 L 147.000000,205.670242 L 148.000000,205.266037 L 149.000000,205.000000 " fill="none" stroke="#4285F4" stroke-width="2"/>
  <text x="5" y="215" font-family="monospace" font-size="12" fill="#4285F4">Output Ch#0</text>
  <path d="M 0.000000,357.507355 L 1.000000,356.331879 L 2.000000,355.166138 L 3.000000,354.016785 L 4.000000,352.890350 L 5.000000,351.793304 L 6.000000,350.731964 L 7.000000,349.712463 L 8.000000,348.740845 L 9.000000,347.822784 L 10.000000,346.963806 L 11.000000,346.169189 L 12.000000,345.443878 L 13.000000,344.792450 L 14.000000,344.219299 L 15.000000,343.728302 L 16.000000,343.323029 L 17.000000,343.006744 L 18.000000,342.782135 L 19.000000,342.651611 L 20.000000,342.617126 L 21.000000,342.680084 L 22.000000,342.841644 L 23.000000,343.102295 L 24.000000,343.462189 L 25.000000,343.921051 L 26.000000,344.478027 L 27.000000,345.131866 L 28.000000,345.880890 L 29.000000,346.722931 L 30.000000,347.655365 L 31.000000,348.675171 L 32.000000,349.778870 L 33.000000,350.962616 L 34.000000,352.222107 L 35.000000,353.552734 L 36.000000,354.949432 L 37.000000,356.406891 L 38.000000,357.919403 L 39.000000,359.481049 L 40.000000,361.085510 L 41.000000,362.726318 L 42.000000,364.396729 L 43.000000,366.089844 L 44.000000,367.798584 L 45.000000,369.515656 L 46.000000,371.233765 L 47.000000,372.945435 L 48.000000,374.643250 L 49.000000,376.319641 L 50.000000,377.967163 L 51.000000,379.578369 L 52.000000,381.145844 L 53.000000,382.662354 L 54.000000,384.120758 L 55.000000,385.514038 L 56.000000,386.835480 L 57.000000,388.078461 L 58.000000,389.236694 L 59.000000,390.304138 L 60.000000,391.275116 L 61.000000,392.144165 L 62.000000,392.906250 L 63.000000,393.556732 L 64.000000,394.091309 L 65.000000,394.506104 L 66.000000,394.797729 L 67.000000,394.963196 L 68.000000,395.000000 L 69.000000,394.906097 L 70.000000,394.679993 L 71.000000,394.320557 L 72.000000,393.827332 L 73.000000,393.200287 L 74.000000,392.439880 L 75.000000,391.547119 L 76.000000,390.523560 L 77.000000,389.371216 L 78.000000,388.092621 L 79.000000,386.690826 L 80.000000,385.169373 L 81.000000,383.532288 L 82.000000,381.784058 L 83.000000,379.929626 L 84.000000,377.974396 L 85.000000,375.924133 L 86.000000,373.785034 L 87.000000,371.563751 L 88.000000,369.267151 L 89.000000,366.902588 L 90.000000,364.477600 L 91.000000,362.000031 L 92.000000,359.478058 L 93.000000,356.919983 L 94.000000,354.334320 L 95.000000,351.729828 L 96.000000,349.115265 L 97.000000,346.499603 L 98.000000,343.891785 L 99.000000,341.300903 L 100.000000,338.735901 L 101.000000,336.205811 L 102.000000,333.719543 L 103.000000,331.285919 L 104.000000,328.913635 L 105.000000,326.611176 L 106.000000,324.386871 L 107.000000,322.248840 L 108.000000,320.204865 L 109.000000,318.262512 L 110.000000,316.429016 L 111.000000,314.711243 L 112.000000,313.115631 L 113.000000,311.648376 L 114.000000,310.315125 L 115.000000,309.121094 L 116.000000,308.071106 L 117.000000,307.169403 L 118.000000,306.419800 L 119.000000,305.825592 L 120.000000,305.389496 L 121.000000,305.113739 L 122.000000,305.000000 L 123.000000,305.049377 L 124.000000,305.262390 L 125.000000,305.639038 L 126.000000,306.178741 L 127.000000,306.880341 L 128.000000,307.742126 L 129.000000,308.761810 L 130.000000,309.936615 L 131.000000,311.263153 L 132.000000,312.737518 L 133.000000,314.355316 L 134.000000,316.111664 L 135.000000,318.001160 L 136.000000,320.017914 L 137.000000,322.155640 L 138.000000,324.407623 L 139.000000,326.766754 L 140.000000,329.225494 L 141.000000,331.776001 L 142.000000,334.410126 L 143.000000,337.119385 L 144.000000,339.895111 L 145.000000,342.728271 L 146.000000,345.609772 L 147.000000,348.530243 L 148.000000,351.480316 L 149.000000,354.450378 " fill="none" stroke="#EA4335" stroke-width="2"/>
  <text x="5" y="315" font-family="monospace" font-size="12" fill="#EA4335">Output Ch#1</text>
</svg>