<svg xmlns="http://www.w3.org/2000/svg" viewBox="-10 -10 110 110" preserveAspectRatio="none">
        <rect x="-10" y="-10" width="120" height="120" fill="black" />
  <path d="M 0.000000,52.312065 L 1.000000,55.123444 L 2.000000,57.914703 L 3.000000,60.674850 L 4.000000,63.393047 L 5.000000,66.058609 L 6.000000,68.661079 L 7.000000,71.190224 L 8.000000,73.636108 L 9.000000,75.989113 L 10.000000,78.240005 L 11.000000,80.379951 L 12.000000,82.400528 L 13.000000,84.293800 L 14.000000,86.052322 L 15.000000,87.669197 L 16.000000,89.138077 L 17.000000,90.453186 L 18.000000,91.609344 L 19.000000,92.602036 L 20.000000,93.427338 L 21.000000,94.082016 L 22.000000,94.563499 L 23.000000,94.869896 L 24.000000,95.000000 L 25.000000,94.953308 L 26.000000,94.729980 L 27.000000,94.330925 L 28.000000,93.757690 L 29.000000,93.012543 L 30.000000,92.098389 L 31.000000,91.018845 L 32.000000,89.778130 L 33.000000,88.381134 L 34.000000,86.833336 L 35.000000,85.140808 L 36.000000,83.310226 L 37.000000,81.348763 L 38.000000,79.264130 L 39.000000,77.064522 L 40.000000,74.758560 L 41.000000,72.355331 L 42.000000,69.864265 L 43.000000,67.295128 L 44.000000,64.658051 L 45.000000,61.963360 L 46.000000,59.221672 L 47.000000,56.443748 L 48.000000,53.640472 L 49.000000,50.822906 L 50.000000,48.002090 L 51.000000,45.189114 L 52.000000,42.395027 L 53.000000,39.630806 L 54.000000,36.907307 L 55.000000,34.235237 L 56.000000,31.625088 L 57.000000,29.087111 L 58.000000,26.631292 L 59.000000,24.267262 L 60.000000,22.004320 L 61.000000,19.851355 L 62.000000,17.816818 L 63.000000,15.908707 L 64.000000,14.134521 L 65.000000,12.501221 L 66.000000,11.015240 L 67.000000,9.682392 L 68.000000,8.507938 L 69.000000,7.496483 L 70.000000,6.651989 L 71.000000,5.977787 L 72.000000,5.476528 L 73.000000,5.150173 L 74.000000,5.000000 L 75.000000,5.026611 L 76.000000,5.229897 L 77.000000,5.609055 L 78.000000,6.162605 L 79.000000,6.888351 L 80.000000,7.783466 L 81.000000,8.844425 L 82.000000,10.067059 L 83.000000,11.446568 L 84.000000,12.977524 L 85.000000,14.653908 L 86.000000,16.469162 L 87.000000,18.416121 L 88.000000,20.487156 L 89.000000,22.674131 L 90.000000,24.968439 L 91.000000,27.361078 L 92.000000,29.842651 L 93.000000,32.403400 L 94.000000,35.033268 L 95.000000,37.721931 L 96.000000,40.458801 L 97.000000,43.233150 L 98.000000,46.034081 L 99.000000,48.850578 " fill="none" stroke="#4285F4" stroke-width="2"/>
  <text x="5" y="15" font-family="monospace" font-size="12" fill="#4285F4">Output Ch#0</text>
</svg>