<svg xmlns="http://www.w3.org/2000/svg" viewBox="-10 -10 110 210" preserveAspectRatio="none">
        <rect x="-10" y="-10" width="120" height="220" fill="black" />
  <path d="M 0.000000,95.000000 L 1.000000,93.200043 L 2.000000,91.400803 L 3.000000,89.603012 L 4.000000,87.807373 L 5.000000,86.014610 L 6.000000,84.225449 L 7.000000,82.440590 L 8.000000,80.660751 L 9.000000,78.886658 L 10.000000,77.119003 L 11.000000,75.358498 L 12.000000,73.605858 L 13.000000,71.861771 L 14.000000,70.126938 L 15.000000,68.402054 L 16.000000,66.687813 L 17.000000,64.984894 L 18.000000,63.293976 L 19.000000,61.615746 L 20.000000,59.950863 L 21.000000,58.300003 L 22.000000,56.663822 L 23.000000,55.042976 L 24.000000,53.438110 L 25.000000,51.849873 L 26.000000,50.278893 L 27.000000,48.725796 L 28.000000,47.191212 L 29.000000,45.675755 L 30.000000,44.180023 L 31.000000,42.704620 L 32.000000,41.250130 L 33.000000,39.817142 L 34.000000,38.406231 L 35.000000,37.017952 L 36.000000,35.652863 L 37.000000,34.311516 L 38.000000,32.994438 L 39.000000,31.702173 L 40.000000,30.435217 L 41.000000,29.194088 L 42.000000,27.979284 L 43.000000,26.791275 L 44.000000,25.630560 L 45.000000,24.497589 L 46.000000,23.392818 L 47.000000,22.316690 L 48.000000,21.269636 L 49.000000,20.252066 L 50.000000,19.264406 L 51.000000,18.307030 L 52.000000,17.380333 L 53.000000,16.484684 L 54.000000,15.620430 L 55.000000,14.787933 L 56.000000,13.987526 L 57.000000,13.219521 L 58.000000,12.484222 L 59.000000,11.781940 L 60.000000,11.112926 L 61.000000,10.477474 L 62.000000,9.875832 L 63.000000,9.308239 L 64.000000,8.774918 L 65.000000,8.276089 L 66.000000,7.811943 L 67.000000,7.382675 L 68.000000,6.988457 L 69.000000,6.629436 L 70.000000,6.305763 L 71.000000,6.017570 L 72.000000,5.764965 L 73.000000,5.548058 L 74.000000,5.366928 L 75.000000,5.221645 L 76.000000,5.112278 L 77.000000,5.038860 L 78.000000,5.001431 L 79.000000,5.000000 L 80.000000,5.034561 L 81.000000,5.105114 L 82.000000,5.211620 L 83.000000,5.354042 L 84.000000,5.532318 L 85.000000,5.746384 L 86.000000,5.996151 L 87.000000,6.281509 L 88.000000,6.602367 L 89.000000,6.958572 L 90.000000,7.350002 L 91.000000,7.776482 L 92.000000,8.237854 L 93.000000,8.733925 L 94.000000,9.264507 L 95.000000,9.829380 L 96.000000,10.428326 L 97.000000,11.061096 L 98.000000,11.727436 L 99.000000,12.427086 " fill="none" stroke="#B39DDB" stroke-width="2"/>
  <text x="5" y="15" font-family="monospace" font-size="12" fill="#B39DDB">Input Ch#0</text>
  <path d="M 0.000000,195.000000 L 1.000000,194.997818 L 2.000000,194.987137 L 3.000000,194.960098 L 4.000000,194.909698 L 5.000000,194.829758 L 6.000000,194.714813 L 7.000000,194.560135 L 8.000000,194.361664 L 9.000000,194.115967 L 10.000000,193.820190 L 11.000000,193.472061 L 12.000000,193.069778 L 13.000000,192.612030 L 14.000000,192.097931 L 15.000000,191.527008 L 16.000000,190.899155 L 17.000000,190.214615 L 18.000000,189.473907 L 19.000000,188.677841 L 20.000000,187.827499 L 21.000000,186.924149 L 22.000000,185.969284 L 23.000000,184.964569 L 24.000000,183.911835 L 25.000000,182.812988 L 26.000000,181.670135 L 27.000000,180.485428 L 28.000000,179.261093 L 29.000000,177.999451 L 30.000000,176.702850 L 31.000000,175.373672 L 32.000000,174.014343 L 33.000000,172.627304 L 34.000000,171.214951 L 35.000000,169.779739 L 36.000000,168.324081 L 37.000000,166.850342 L 38.000000,165.360901 L 39.000000,163.858078 L 40.000000,162.344162 L 41.000000,160.821381 L 42.000000,159.291931 L 43.000000,157.757965 L 44.000000,156.221558 L 45.000000,154.684723 L 46.000000,153.149445 L 47.000000,151.617630 L 48.000000,150.091095 L 49.000000,148.571655 L 50.000000,147.061005 L 51.000000,145.560806 L 52.000000,144.072662 L 53.000000,142.598068 L 54.000000,141.138504 L 55.000000,139.695374 L 56.000000,138.270020 L 57.000000,136.863708 L 58.000000,135.477676 L 59.000000,134.113083 L 60.000000,132.771042 L 61.000000,131.452606 L 62.000000,130.158768 L 63.000000,128.890488 L 64.000000,127.648636 L 65.000000,126.434097 L 66.000000,125.247665 L 67.000000,124.090088 L 68.000000,122.962082 L 69.000000,121.864319 L 70.000000,120.797440 L 71.000000,119.762039 L 72.000000,118.758659 L 73.000000,117.787827 L 74.000000,116.850037 L 75.000000,115.945724 L 76.000000,115.075317 L 77.000000,114.239212 L 78.000000,113.437767 L 79.000000,112.671310 L 80.000000,111.940155 L 81.000000,111.244583 L 82.000000,110.584839 L 83.000000,109.961174 L 84.000000,109.373795 L 85.000000,108.822876 L 86.000000,108.308601 L 87.000000,107.831116 L 88.000000,107.390549 L 89.000000,106.987000 L 90.000000,106.620560 L 91.000000,106.291328 L 92.000000,105.999344 L 93.000000,105.744644 L 94.000000,105.527267 L 95.000000,105.347221 L 96.000000,105.204498 L 97.000000,105.099075 L 98.000000,105.030930 L 99.000000,105.000000 " fill="none" stroke="#4285F4" stroke-width="2"/>
  <text x="5" y="115" font-family="monospace" font-size="12" fill="#4285F4">Output Ch#0</text>
</svg>